<svg xmlns="http://www.w3.org/2000/svg" style="display: none;">
  <defs>
    <symbol id="send" width="24" height="24" viewBox="0 0 24 24">
      <path d="M2.01 21 23 12 2.01 3 2 10l15 2-15 2 .01 7Z"/>
    </symbol>
    <symbol id="arrow-right" width="24" height="24" viewBox="0 0 24 24">
      <path d="m14.2 4.8 6.5 6.5.71.7-.7.7-6.5 6.5-1.42-1.4 4.8-4.8H3v-2h14.59l-4.8-4.8 1.42-1.4Z"/>
    </symbol>
    <symbol id="chevron-right" width="24" height="24" viewBox="0 0 24 24">
      <path d="m13.59 12-5.8-5.8 1.42-1.4 6.5 6.5.7.7-.7.7-6.5 6.5-1.42-1.4 5.8-5.8Z"/>
    </symbol>
    <symbol id="github" width="24" height="24" viewBox="0 0 24 24">
      <path d="M12 2a10 10 0 0 0-3.16 19.5c.5.08.66-.23.66-.5v-1.69c-2.77.6-3.36-1.34-3.36-1.34-.46-1.16-1.11-1.47-1.11-1.47-.91-.62.07-.6.07-.6 1 .07 1.53 1.03 1.53 1.03.87 1.52 2.34 1.07 2.91.83.09-.65.35-1.09.63-1.34-2.22-.25-4.55-1.11-4.55-4.92 0-1.11.38-2 1.03-2.71-.1-.25-.45-1.29.1-2.64 0 0 .84-.27 2.75 1.02a9.42 9.42 0 0 1 5 0c1.91-1.29 2.75-1.02 2.75-1.02.55 1.35.2 2.39.1 2.64.65.71 1.03 1.6 1.03 2.71 0 3.82-2.34 4.66-4.57 4.91.36.31.69.92.69 1.85V21c0 .27.16.59.67.5a10.03 10.03 0 0 0 3.9-16.57A10 10 0 0 0 12 2Z"/>
    </symbol>
    <symbol id="menu" width="24" height="24" viewBox="0 0 24 24">
      <path d="M22 6H2V4h20v2ZM2 13h16v-2H2v2Zm0 7h20v-2H2v2Z"/>
    </symbol>
    <symbol id="figma" width="24" height="24" viewBox="0 0 24 24">
      <path fill-rule="evenodd" d="M15 10a2 2 0 1 0 0 4 2 2 0 0 0 0-4Zm-2 5.46A4 4 0 0 0 17.65 9a4.01 4.01 0 0 0 .18-5.83A4 4 0 0 0 15 2H9a4 4 0 0 0-2.65 7 4.01 4.01 0 0 0 0 6A3.98 3.98 0 0 0 5 18a4 4 0 1 0 8 0v-2.54ZM11 16H9a2 2 0 1 0 2 2v-2ZM9 8h2V4H9a2 2 0 1 0 0 4Zm0 2a2 2 0 1 0 0 4h2v-4H9Zm4-2V4h2a2 2 0 0 1 0 4h-2Z"/>
    </symbol>
    <symbol id="copy" width="24" height="24" viewBox="0 0 24 24">
      <path d="M3 2h12v4H7v10H3V2Zm6 20V8h12v11l-3 3H9Z"/>
    </symbol>
    <symbol id="error" width="24" height="24" viewBox="0 0 24 24">
      <path d="M19.7 19H4.3L12 5.07 19.7 19ZM11.12 2.52l-9.39 17L2.61 21h18.78l.88-1.48-9.4-17h-1.75ZM11 14v-4h2v4h-2Zm0 3v-2h2v2h-2Z"/>
    </symbol>
    <symbol id="arrow-left" width="24" height="24" viewBox="0 0 24 24">
      <path d="m9.8 19.2-6.5-6.5-.71-.7.7-.7 6.5-6.5 1.42 1.4L6.4 11H21v2H6.41l4.8 4.8-1.42 1.4Z"/>
    </symbol>
    <symbol id="check" width="24" height="24" viewBox="0 0 24 24">
      <path d="m20.2 7.2-10 10-.7.71-.7-.7-5-5 1.4-1.42 4.3 4.3 9.3-9.3 1.4 1.42Z"/>
    </symbol>
    <symbol id="link" width="24" height="24" viewBox="0 0 24 24">
      <path d="M9 4 8 5v2h2V6h10v7H10v-2H8v3l1 1h12l1-1V5l-1-1H9Zm2 4H3L2 9v9l1 1h12l1-1v-2h-2v1H4v-7h10v2h2V9l-1-1h-4Z"/>
    </symbol>
    <symbol id="close" width="24" height="24" viewBox="0 0 24 24">
      <path d="M19 6.41 17.59 5 12 10.59 6.41 5 5 6.41 10.59 12 5 17.59 6.41 19 12 13.41 17.59 19 19 17.59 13.41 12 19 6.41Z"/>
    </symbol>
    <symbol id="pause" width="24" height="24" viewBox="0 0 24 24">
      <path d="M6 19h4V5H6v14Zm8-14v14h4V5h-4Z"/>
    </symbol>
    <symbol id="play" width="24" height="24" viewBox="0 0 24 24">
      <path d="M8 5v14l11-7L8 5Z"/>
    </symbol>
    <symbol id="bluesky" width="24" height="24" viewBox="0 0 738 572">
      <path d="M85.5424 0.00468493C59.4549 16.9016 47.558 43.9109 48.594 70.2203C49.6315 96.5281 62.1502 122.294 82.0205 142.189C83.9971 144.167 86.0768 146.064 88.2111 147.908C77.6299 165.611 61.5361 168.18 48.3486 164.448C40.7705 162.305 34.7424 157.686 31.6674 152.167C28.594 146.645 27.4955 140.05 31.7533 129.886L4.81583 118.605C-2.32479 135.652 -1.23104 153.108 6.15646 166.375C13.5471 179.644 26.258 188.547 40.3971 192.547C64.6877 199.422 94.9127 190.644 112.303 164.078C125.691 170.844 140.71 175.259 156.722 176.556C157.778 194.486 164.294 211.219 174.9 226.228C165.425 229.566 157.413 235.991 152.369 244.369C138.906 266.731 147.796 299.556 179.783 321.784L196.447 297.803C172.546 281.194 173.202 266.381 177.385 259.428C179.478 255.952 182.752 253.577 188.064 252.988C192.661 252.48 199.089 253.516 206.955 258.3C211.577 261.716 216.439 264.964 221.514 268.022C246.683 283.175 277.46 294.283 311.617 300.175C298.985 309.9 290.036 322.495 283.297 336.808C232.028 323.386 182.281 336.567 134.891 390.917C184.25 402.214 232.063 404.602 276.146 385.542L335.458 551.816C342.339 577.503 386.227 578.225 393.306 551.816L452.978 384.522C497.689 404.663 546.294 402.408 596.503 390.916C548.805 336.22 498.725 323.225 447.113 337.077C440.531 322.509 431.483 310.413 419.55 301.198C456.238 295.63 489.269 284.105 515.98 268.02C521.678 264.589 527.102 260.917 532.222 257.033C539.066 253.356 544.725 252.528 548.875 252.986C554.188 253.575 557.461 255.95 559.553 259.427C563.738 266.38 564.397 281.192 540.491 297.802L557.155 321.783C589.139 299.553 598.03 266.73 584.567 244.366C579.603 236.119 571.755 229.772 562.474 226.397C573.13 211.372 579.688 194.616 580.767 176.659C596.819 175.575 611.892 171.363 625.372 164.772C642.831 190.798 672.739 199.359 696.819 192.547C710.96 188.547 723.672 179.644 731.063 166.375C738.453 153.109 739.541 135.652 732.402 118.605L705.464 129.886C709.722 140.052 708.625 146.647 705.55 152.167C702.477 157.688 696.445 162.308 688.867 164.448C675.953 168.105 660.255 165.709 649.674 148.988C652.255 146.816 654.736 144.55 657.096 142.191C676.966 122.295 689.486 96.5297 690.521 70.2219C691.558 43.9125 679.661 16.9031 653.574 0.00624657L637.706 24.5141C655.847 36.2641 662.039 51.5078 661.347 69.0688C660.656 86.6313 651.625 106.347 636.441 121.553C613.31 144.714 577.935 158.542 536.191 141.509C545.777 135.625 553.935 126.231 558.952 113.983L531.931 102.914C527.755 113.111 522.316 117.002 516.239 118.731C510.166 120.458 502.636 119.456 495.761 115.613C482.011 107.925 471.422 91.6438 482.531 66.3156L455.792 54.5844C440.594 89.2328 453.799 122.006 476.449 137.906L476.349 138.019C501.246 159.238 526.713 170.823 550.955 175.066C541.881 198.53 528.897 211.717 515.111 218.82C500.611 226.294 484.538 227.077 470.153 223.164C455.769 219.25 443.544 210.477 437.238 200.602C430.93 190.727 429.381 180.686 435.878 167.955L409.863 154.681C399.011 175.956 401.641 199.114 412.624 216.316C423.605 233.519 441.775 245.706 462.486 251.341C467.783 252.781 473.277 253.775 478.881 254.281C448.392 267.591 410.197 275.772 368.75 275.772C329.419 275.772 293 268.419 263.331 256.297C267.4 255.734 271.397 254.913 275.288 253.855C295.999 248.22 314.172 236.03 325.153 218.828C336.138 201.625 338.763 178.469 327.91 157.195L301.9 170.467C308.396 183.202 306.847 193.238 300.541 203.114C294.236 212.989 282.01 221.764 267.625 225.677C253.241 229.589 237.172 228.805 222.667 221.333C208.469 214.014 195.125 200.236 186.024 175.43C210.425 171.583 236.133 160.297 261.289 139.258C285.155 123.923 299.605 90.2469 283.961 54.5828L257.222 66.3141C268.331 91.6422 257.741 107.923 243.992 115.611C237.117 119.455 229.591 120.455 223.516 118.728C217.438 116.997 211.997 113.108 207.821 102.909L180.8 113.978C185.772 126.119 193.831 135.456 203.306 141.348C161.397 158.617 125.877 144.778 102.678 121.548C87.4908 106.342 78.4596 86.6266 77.769 69.0641C77.0768 51.5016 83.2737 36.2578 101.414 24.5094L85.5393 0L85.5424 0.00468493Z"/>
    </symbol>
    <symbol id="discord" width="24" height="24" viewBox="0 0 24 24">
      <path d="M19.27 5.33C17.94 4.71 16.5 4.26 15 4a.09.09 0 0 0-.07.03c-.18.33-.39.76-.53 1.09a16.09 16.09 0 0 0-4.8 0c-.14-.34-.35-.76-.54-1.09c-.01-.02-.04-.03-.07-.03c-1.5.26-2.93.71-4.27 1.33c-.01 0-.02.01-.03.02c-2.72 4.07-3.47 8.03-3.1 11.95c0 .02.01.04.03.05c1.8 1.32 3.53 2.12 5.24 2.65c.03.01.06 0 .07-.02c.4-.55.76-1.13 1.07-1.74c.02-.04 0-.08-.04-.09c-.57-.22-1.11-.48-1.64-.78c-.04-.02-.04-.08-.01-.11c.11-.08.22-.17.33-.25c.02-.02.05-.02.07-.01c3.44 1.57 7.15 1.57 10.55 0c.02-.01.05-.01.07.01c.11.09.22.17.33.26c.04.03.04.09-.01.11c-.52.31-1.07.56-1.64.78c-.04.01-.05.06-.04.09c.32.61.68 1.19 1.07 1.74c.03.01.06.02.09.01c1.72-.53 3.45-1.33 5.25-2.65c.02-.01.03-.03.03-.05c.44-4.53-.73-8.46-3.1-11.95c-.01-.01-.02-.02-.04-.02zM8.52 14.91c-1.03 0-1.89-.95-1.89-2.12s.84-2.12 1.89-2.12c1.06 0 1.9.96 1.89 2.12c0 1.17-.84 2.12-1.89 2.12zm6.97 0c-1.03 0-1.89-.95-1.89-2.12s.84-2.12 1.89-2.12c1.06 0 1.9.96 1.89 2.12c0 1.17-.83 2.12-1.89 2.12z"/>
    </symbol>
    <symbol id="x" width="24" height="24" viewBox="0 0 24 24">
      <path d="M14.258 10.152L20.445 3h-1.34l-5.363 6.238L9.615 3H3.5l6.726 9.78L3.5 21h1.34l5.668-6.588L14.885 21h6.115l-6.783-9.848h.041zm-2.173 2.216l-.671-.959-5.517-7.89h2.374l4.449 6.373.671.959 5.517 7.89h-2.374l-4.449-6.373z"/>
    </symbol>
    <symbol id="email" width="24" height="24" viewBox="0 0 24 24">
      <path d="M20 4H4c-1.1 0-1.99.9-1.99 2L2 18c0 1.1.9 2 2 2h16c1.1 0 2-.9 2-2V6c0-1.1-.9-2-2-2zm0 4l-8 5-8-5V6l8 5 8-5v2z"/>
    </symbol>
  </defs>
</svg>
